<svg width="20" height="20" viewBox="0 0 20 20" fill="none" xmlns="http://www.w3.org/2000/svg">
<g clip-path="url(#clip0_437_7841)">
<mask id="mask0_437_7841" style="mask-type:alpha" maskUnits="userSpaceOnUse" x="0" y="0" width="20" height="20">
<rect width="20" height="20" fill="#D9D9D9"/>
</mask>
<g mask="url(#mask0_437_7841)">
<path d="M4.66667 3.66667L3.60417 2.60417C4.42362 1.79861 5.37549 1.16319 6.4598 0.697917C7.54424 0.232639 8.71389 0 9.96876 0C11.2236 0 12.3933 0.236111 13.4777 0.708333C14.562 1.18056 15.5139 1.83333 16.3333 2.66667L15.2708 3.72917C14.5903 3.03472 13.7951 2.48958 12.8854 2.09375C11.9757 1.69792 11.0019 1.5 9.96396 1.5C8.92591 1.5 7.95369 1.69444 7.0473 2.08333C6.14077 2.47222 5.34723 3 4.66667 3.66667ZM7.14584 6.14583L6.08334 5.08333C6.58459 4.59417 7.1682 4.20799 7.83417 3.92479C8.50028 3.6416 9.21181 3.5 9.96876 3.5C10.7257 3.5 11.4375 3.64931 12.1042 3.94792C12.7708 4.24653 13.3542 4.64583 13.8542 5.14583L12.7917 6.20833C12.4306 5.83333 12.0087 5.53819 11.526 5.32292C11.0433 5.10764 10.5242 5 9.96876 5C9.41334 5 8.89424 5.10069 8.41146 5.30208C7.92882 5.50347 7.50695 5.78472 7.14584 6.14583ZM10 20C9.16667 20 8.45834 19.7083 7.87501 19.125C7.29167 18.5417 7.00001 17.836 7.00001 17.0081V9.99187C7.00001 9.16396 7.29167 8.45833 7.87501 7.875C8.45834 7.29167 9.16667 7 10 7C10.8333 7 11.5417 7.29167 12.125 7.875C12.7083 8.45833 13 9.16396 13 9.99187V17.0081C13 17.836 12.7083 18.5417 12.125 19.125C11.5417 19.7083 10.8333 20 10 20ZM10.0044 11.5C10.4181 11.5 10.7708 11.3527 11.0625 11.0581C11.3542 10.7635 11.5 10.4094 11.5 9.99563C11.5 9.58188 11.3527 9.22917 11.0581 8.9375C10.7635 8.64583 10.4094 8.5 9.99563 8.5C9.58188 8.5 9.22917 8.64729 8.93751 8.94188C8.64584 9.23646 8.50001 9.59063 8.50001 10.0044C8.50001 10.4181 8.6473 10.7708 8.94188 11.0625C9.23646 11.3542 9.59063 11.5 10.0044 11.5Z" fill="#BAC8DE"/>
</g>
</g>
<defs>
<clipPath id="clip0_437_7841">
<rect width="20" height="20" fill="white"/>
</clipPath>
</defs>
</svg>
